<mxfile host="app.diagrams.net" agent="Mozilla/5.0 (Windows NT 10.0; Win64; x64) AppleWebKit/537.36 (KHTML, like Gecko) Chrome/135.0.0.0 Safari/537.36" version="26.2.14">
  <diagram name="Page-1" id="e7e014a7-5840-1c2e-5031-d8a46d1fe8dd">
    <mxGraphModel dx="1251" dy="660" grid="1" gridSize="10" guides="1" tooltips="1" connect="1" arrows="1" fold="1" page="1" pageScale="1" pageWidth="1169" pageHeight="826" background="none" math="0" shadow="0">
      <root>
        <mxCell id="0" />
        <mxCell id="1" parent="0" />
        <mxCell id="2" value="Пользователь" style="swimlane;whiteSpace=wrap" parent="1" vertex="1">
          <mxGeometry x="164.5" y="128" width="275.5" height="570" as="geometry" />
        </mxCell>
        <mxCell id="5" value="" style="ellipse;shape=startState;fillColor=#000000;strokeColor=#ff0000;" parent="2" vertex="1">
          <mxGeometry x="62.75" y="40" width="30" height="30" as="geometry" />
        </mxCell>
        <mxCell id="6" value="" style="edgeStyle=elbowEdgeStyle;elbow=horizontal;verticalAlign=bottom;endArrow=open;endSize=8;strokeColor=#b85450;endFill=1;rounded=0;entryX=0.5;entryY=0;entryDx=0;entryDy=0;exitX=0.5;exitY=1;exitDx=0;exitDy=0;fillColor=#f8cecc;" parent="2" source="5" target="isATzn_e-f499eAec0NE-41" edge="1">
          <mxGeometry x="100" y="40" as="geometry">
            <mxPoint x="78.25" y="110" as="targetPoint" />
          </mxGeometry>
        </mxCell>
        <mxCell id="isATzn_e-f499eAec0NE-41" value="Выбирает поле просмотра результатов анализа" style="rounded=1;whiteSpace=wrap;html=1;arcSize=40;fontColor=#000000;fillColor=#ffffc0;strokeColor=#ff0000;" vertex="1" parent="2">
          <mxGeometry x="7.75" y="112" width="140" height="40" as="geometry" />
        </mxCell>
        <mxCell id="isATzn_e-f499eAec0NE-46" value="" style="rhombus;whiteSpace=wrap;html=1;fontColor=#000000;fillColor=#ffffc0;strokeColor=#ff0000;" vertex="1" parent="2">
          <mxGeometry x="90.5" y="224" width="80" height="40" as="geometry" />
        </mxCell>
        <mxCell id="isATzn_e-f499eAec0NE-47" value="&quot;Диагностика&quot;" style="edgeStyle=orthogonalEdgeStyle;html=1;align=left;verticalAlign=bottom;endArrow=open;endSize=8;strokeColor=#ff0000;rounded=0;" edge="1" source="isATzn_e-f499eAec0NE-46" parent="2">
          <mxGeometry x="-0.9823" y="2" relative="1" as="geometry">
            <mxPoint x="735.5" y="244" as="targetPoint" />
            <mxPoint as="offset" />
          </mxGeometry>
        </mxCell>
        <mxCell id="isATzn_e-f499eAec0NE-48" value="&quot;Анализ&quot;" style="edgeStyle=orthogonalEdgeStyle;html=1;align=left;verticalAlign=top;endArrow=open;endSize=8;strokeColor=#ff0000;rounded=0;exitX=0;exitY=0.5;exitDx=0;exitDy=0;" edge="1" source="isATzn_e-f499eAec0NE-46" parent="2">
          <mxGeometry x="-0.7791" y="-22" relative="1" as="geometry">
            <mxPoint x="395.5" y="272" as="targetPoint" />
            <Array as="points">
              <mxPoint x="8" y="244" />
            </Array>
            <mxPoint as="offset" />
          </mxGeometry>
        </mxCell>
        <mxCell id="isATzn_e-f499eAec0NE-51" value="[Выбор вкладки]" style="text;html=1;align=center;verticalAlign=middle;resizable=0;points=[];autosize=1;strokeColor=none;fillColor=none;fontFamily=Helvetica;fontSize=11;fontColor=default;labelBackgroundColor=default;" vertex="1" parent="2">
          <mxGeometry x="75.5" y="182" width="110" height="30" as="geometry" />
        </mxCell>
        <mxCell id="3" value="Система" style="swimlane;whiteSpace=wrap" parent="1" vertex="1">
          <mxGeometry x="440" y="128" width="530" height="570" as="geometry" />
        </mxCell>
        <mxCell id="isATzn_e-f499eAec0NE-43" value="Отобразить интерфейс с вкладками &quot;Анализ&quot; и &quot;Диагностика&quot;" style="rounded=1;whiteSpace=wrap;html=1;arcSize=40;fontColor=#000000;fillColor=#ffffc0;strokeColor=#ff0000;" vertex="1" parent="3">
          <mxGeometry x="167.75" y="72" width="194.5" height="40" as="geometry" />
        </mxCell>
        <mxCell id="isATzn_e-f499eAec0NE-45" style="edgeStyle=orthogonalEdgeStyle;rounded=0;orthogonalLoop=1;jettySize=auto;html=1;exitX=1;exitY=0.5;exitDx=0;exitDy=0;entryX=0;entryY=0.5;entryDx=0;entryDy=0;fillColor=#f8cecc;strokeColor=#b85450;endArrow=open;endFill=0;" edge="1" parent="1" source="isATzn_e-f499eAec0NE-41" target="isATzn_e-f499eAec0NE-43">
          <mxGeometry relative="1" as="geometry" />
        </mxCell>
        <mxCell id="isATzn_e-f499eAec0NE-52" style="edgeStyle=orthogonalEdgeStyle;shape=connector;rounded=0;orthogonalLoop=1;jettySize=auto;html=1;exitX=0.5;exitY=1;exitDx=0;exitDy=0;entryX=0.5;entryY=0;entryDx=0;entryDy=0;strokeColor=#b85450;align=center;verticalAlign=middle;fontFamily=Helvetica;fontSize=11;fontColor=default;labelBackgroundColor=default;endArrow=open;endFill=0;fillColor=#f8cecc;" edge="1" parent="1" source="isATzn_e-f499eAec0NE-43" target="isATzn_e-f499eAec0NE-46">
          <mxGeometry relative="1" as="geometry" />
        </mxCell>
      </root>
    </mxGraphModel>
  </diagram>
</mxfile>
